<?xml version="1.0" encoding="utf-8"?>
<!-- Generator: Adobe Illustrator 24.1.3, SVG Export Plug-In . SVG Version: 6.00 Build 0)  -->
<svg version="1.1" id="Layer_1" xmlns="http://www.w3.org/2000/svg" xmlns:xlink="http://www.w3.org/1999/xlink" x="0px" y="0px"
	 viewBox="0 0 267.7 97.1" style="enable-background:new 0 0 267.7 97.1;" xml:space="preserve">
<style type="text/css">
	.st0{fill:#090B0C;}
</style>
<g>
	<path class="st0" d="M94.3,86.3V4.5l26.5,0c0,0,0,8.4,0,9.3c8.4-8,16.6-11.4,27.6-11.4c9.3,0,16.6,2.6,21.6,7.5
		c5.4,5.4,7.7,11.9,7.7,22.5v33.7v20.1h-25.8l0-20.2V38.6c0-5.4-0.5-7.7-2.1-9.9c-1.7-2.4-4.8-3.8-8.8-3.8c-7.5,0-14.2,4.7-20,14.1
		v27.1l0,20.2L94.3,86.3L94.3,86.3z"/>
	<path class="st0" d="M207.7,52.9c1.3,10.9,7.7,16.6,18.2,16.6c5.4,0,10.1-1.7,13.5-5c2-1.9,3.1-3.3,4.6-6.7l22.4,6.3
		c-1.6,6.4-4.8,10.1-8.5,13.9c-7.7,7.5-18.4,11.4-31.6,11.4c-13.1,0-23.5-3.8-31.1-11.4c-7.9-8-12.2-19.4-12.2-32.7
		c0-26.5,17-44.1,42.6-44.1c20.9,0,35.5,11.4,40.2,31.4c1.1,4.3,2,8.9,1.7,20.2L207.7,52.9L207.7,52.9L207.7,52.9z M242.6,34.4
		c-1.9-8.6-7.7-13.1-16.9-13.1c-9.5,0-15.3,4.3-17.6,13.1H242.6z"/>
	<path class="st0" d="M44.6,0C17.5,0,0.4,17,0.4,43.8c0,8.7,1.8,16.4,5.2,22.9c3.1-3.1,6.9-4.7,11.2-4.7c4.3,0,8.2,1.5,11.3,4.6
		c3.2,3.1,4.9,7,4.9,11.5c0,3-0.7,5.7-2.2,8.2C35,87.4,39.6,88,44.5,88c26.7,0,44.4-17.7,44.4-44.4C88.9,17,71.7,0,44.6,0z
		 M44.6,67.6C33,67.6,26,58.6,26,43.7c0-14.7,7-23.6,18.8-23.6C56.2,20.1,63,29,63,44C63,58.9,56.3,67.6,44.6,67.6z"/>
	<g>
		<path class="st0" d="M25.8,69c-2.6-2.4-5.6-3.7-9.1-3.7s-6.5,1.3-9,3.8c-2.5,2.5-3.8,5.5-3.8,9c0,0.9,0.1,1.8,0.3,2.6
			c0.8-0.2,1.6-0.3,2.4-0.3c2.7,0,5,0.9,7,2.8c2,1.9,3,4.4,3,7.1c0,0.2,0,0.4,0,0.7c0,0,0.1,0,0.1,0c3.6,0,6.6-1.3,9.2-3.8
			c2.5-2.5,3.8-5.6,3.8-9.1C29.7,74.5,28.4,71.4,25.8,69z"/>
		<path class="st0" d="M6.7,83.7c1.8,0,3.4,0.6,4.7,1.9c1.3,1.3,2,2.9,2,4.8c0,1.9-0.7,3.5-2,4.8c-1.3,1.3-2.9,2-4.8,2
			c-1.8,0-3.4-0.7-4.7-2c-1.3-1.3-2-2.9-2-4.8c0-1.8,0.7-3.4,2-4.7C3.3,84.4,4.8,83.7,6.7,83.7z"/>
	</g>
</g>
</svg>
